<svg width="1373" height="1435" version="1.1" xmlns="http://www.w3.org/2000/svg" desc="Created with imagetracer.js version 1.2.6" ><path fill="rgb(0,0,0)" stroke="rgb(0,0,0)" stroke-width="1" opacity="0" d="M 0 0 L 1373 0 L 1373 1435 L 0 1435 L 0 0 Z M 22 138 L 21 141 L 22 141 L 22 138 Z M 22 157 L 21 160 L 22 160 L 22 157 Z M 22 171 L 21 174 L 22 174 L 22 171 Z M 22 190 L 21 193 L 22 193 L 22 190 Z M 22 326 L 21 333 L 22 333 L 22 326 Z M 989 434 L 981 439 Q 958 460 940 486 L 936 490 Q 917 497 902 508 Q 871 538 833 560 Q 825 565 821 575 Q 819 580 813 581 L 801 581 L 768 572 L 746 572 L 724 579 L 705 579 L 647 568 L 625 566 L 624 565 L 613 565 L 612 564 L 558 564 L 557 565 L 547 565 L 514 571 L 473 583 Q 450 591 432 603 Q 411 617 394 635 L 384 641 L 366 641 Q 355 639 348 633 L 338 623 L 334 614 L 332 604 L 334 594 L 338 587 Q 344 579 355 576 L 364 576 L 374 581 Q 380 586 382 596 Q 383 607 381 614 L 392 613 L 406 606 Q 421 594 426 572 L 426 553 L 425 548 L 420 534 L 414 525 L 407 518 L 404 515 Q 395 504 382 499 L 363 494 L 341 494 L 328 497 Q 312 503 301 513 L 295 518 L 304 503 L 305 498 L 300 500 L 281 514 Q 267 525 260 542 L 255 560 L 254 583 L 253 587 L 246 564 Q 247 561 244 562 L 240 576 Q 242 582 239 584 L 239 600 L 243 621 Q 249 636 258 648 L 267 657 L 248 649 L 248 652 L 256 663 Q 263 673 275 679 L 288 686 L 307 694 L 303 696 Q 297 695 296 697 Q 292 696 293 699 L 297 701 L 318 707 L 333 708 L 334 709 L 350 709 L 359 711 L 364 719 L 365 755 L 369 777 Q 378 807 396 828 Q 397 831 401 830 L 400 826 L 401 815 Q 408 830 419 842 Q 434 857 454 867 L 459 866 L 478 877 L 498 900 L 504 914 L 506 925 L 506 963 L 505 964 Q 503 976 508 982 L 529 1002 L 589 1055 L 604 1066 L 616 1069 L 656 1069 L 668 1066 L 673 1060 L 673 1051 L 666 1038 L 656 1030 L 637 1025 L 622 1018 L 599 1001 Q 586 990 576 976 L 569 956 L 569 930 L 585 877 L 591 844 L 591 808 L 586 781 Q 576 748 556 727 L 550 719 L 567 731 L 584 751 Q 595 770 599 795 L 653 826 L 679 838 L 693 842 L 694 808 L 697 802 Q 713 784 733 770 L 734 771 L 709 800 L 703 809 L 703 906 L 704 907 L 704 933 L 700 936 L 681 937 L 672 940 Q 664 941 661 938 L 652 938 L 645 940 L 630 949 L 618 961 L 614 971 Q 613 979 617 983 L 622 986 L 629 988 L 649 988 L 672 984 L 679 984 L 680 983 L 720 980 L 731 977 L 741 971 Q 751 962 756 948 L 773 893 L 778 880 L 786 865 Q 790 858 799 857 L 834 851 L 859 844 Q 883 835 901 820 L 915 806 L 941 772 L 977 736 L 1008 686 Q 1019 671 1039 666 L 1066 666 L 1083 669 Q 1093 670 1101 668 Q 1110 665 1116 659 L 1130 644 L 1137 638 Q 1144 631 1148 621 Q 1149 613 1147 610 L 1087 574 L 1081 567 L 1077 549 L 1073 539 L 1063 523 L 1039 501 L 1039 496 L 1049 459 L 1049 447 L 1047 443 L 1042 443 L 1034 448 L 1002 478 L 1001 451 Q 998 449 1000 443 L 997 435 Q 995 433 989 434 Z M 22 538 L 21 611 L 22 611 L 22 538 Z M 22 659 L 21 675 L 22 675 L 22 659 Z M 22 745 L 21 862 L 22 862 L 22 745 Z M 601 808 L 601 838 L 600 839 L 598 859 L 578 938 Q 576 951 580 959 Q 591 966 605 970 Q 607 959 614 952 Q 621 943 631 938 L 633 935 L 620 924 L 611 912 L 612 896 L 632 848 L 635 826 L 601 808 Z M 869 849 L 861 853 L 844 858 L 794 868 L 794 871 L 797 875 Q 820 897 848 916 L 853 922 L 853 927 L 829 946 L 813 953 L 803 963 L 795 984 L 795 997 L 796 999 Q 799 1003 805 1004 L 822 1004 L 838 997 L 855 985 L 890 955 Q 901 946 905 929 L 905 914 L 902 904 L 872 851 L 869 849 Z M 22 880 L 21 939 L 22 939 L 22 880 Z M 22 1001 L 21 1018 L 22 1018 L 22 1001 Z M 22 1343 L 21 1360 L 22 1360 L 22 1343 Z " /><path fill="rgb(209,213,217)" stroke="rgb(209,213,217)" stroke-width="1" opacity="0.9333333333333333" d="M 21.5 138 L 22 140.5 L 21 140.5 L 21.5 138 Z " /><path fill="rgb(209,213,217)" stroke="rgb(209,213,217)" stroke-width="1" opacity="0.9333333333333333" d="M 21.5 157 L 22 159.5 L 21 159.5 L 21.5 157 Z " /><path fill="rgb(209,213,217)" stroke="rgb(209,213,217)" stroke-width="1" opacity="0.9333333333333333" d="M 21.5 171 L 22 173.5 L 21 173.5 L 21.5 171 Z " /><path fill="rgb(209,213,217)" stroke="rgb(209,213,217)" stroke-width="1" opacity="0.9333333333333333" d="M 21.5 190 L 22 192.5 L 21 192.5 L 21.5 190 Z " /><path fill="rgb(209,213,217)" stroke="rgb(209,213,217)" stroke-width="1" opacity="0.9333333333333333" d="M 21.5 326 L 22 332.5 L 21 332.5 L 21.5 326 Z " /><path fill="rgb(209,213,217)" stroke="rgb(209,213,217)" stroke-width="1" opacity="0.9333333333333333" d="M 988.5 434 Q 994.6 433.3 997 435 L 998 437.5 L 994.5 435 Q 986.4 433.9 983.5 438 L 967 453.5 L 936.5 491 L 907.5 505 L 869.5 537 L 835.5 559 L 826 567.5 L 820 579 L 810.5 583 L 802.5 583 L 767.5 573 L 745 572.5 L 767.5 572 L 800.5 581 L 812.5 581 Q 818.6 579.6 821 574.5 Q 824.6 565.1 832.5 560 Q 870.9 537.9 901.5 508 Q 916.8 497.3 935.5 490 L 940 485.5 Q 957.7 459.7 980.5 439 L 988.5 434 Z " /><path fill="rgb(209,213,217)" stroke="rgb(209,213,217)" stroke-width="1" opacity="0.9333333333333333" d="M 999.5 442 L 1001 450.5 L 1001 473.5 L 1000 473.5 L 1000 452.5 L 999 451.5 L 999.5 442 Z " /><path fill="rgb(209,213,217)" stroke="rgb(209,213,217)" stroke-width="1" opacity="0.9333333333333333" d="M 1041.5 443 Q 1046.8 441.8 1048 444.5 L 1049 447.5 L 1048 447.5 L 1047 444 L 1042.5 444 L 1032.5 450 L 1001.5 479 L 1016.5 463 L 1033.5 448 L 1041.5 443 Z " /><path fill="rgb(209,213,217)" stroke="rgb(209,213,217)" stroke-width="1" opacity="0.9333333333333333" d="M 1048.5 453 L 1049 458.5 L 1048 458.5 L 1048.5 453 Z " /><path fill="rgb(209,213,217)" stroke="rgb(209,213,217)" stroke-width="1" opacity="0.9333333333333333" d="M 985.5 455 L 989 456.5 L 990 458.5 L 990 475.5 L 991 476.5 L 991 499.5 Q 986.8 514.3 975.5 522 L 969.5 525 L 965.5 525 L 962 520.5 L 960 510.5 L 961 509.5 L 962 498.5 L 967 484.5 Q 973.8 467.3 985.5 455 Z " /><path fill="rgb(209,213,217)" stroke="rgb(209,213,217)" stroke-width="1" opacity="0.9333333333333333" d="M 1047.5 460 L 1048 463.5 L 1039 495.5 L 1039 500.5 L 1063 522.5 L 1073 539.5 L 1072 539.5 Q 1064.6 522.9 1051.5 512 L 1037 500.5 L 1047.5 460 Z " /><path fill="rgb(209,213,217)" stroke="rgb(209,213,217)" stroke-width="1" opacity="0.9333333333333333" d="M 340.5 494 L 362.5 494 L 372.5 496 Q 392.3 501.2 404 514.5 L 398.5 510 Q 387.6 501.4 372.5 497 L 362.5 495 L 340.5 495 Q 326.8 497.3 316.5 503 Q 303.8 510.3 294 520.5 Q 294.8 522.8 292.5 522 L 293 520.5 Q 296.6 508.1 304 499.5 L 302.5 500 Q 283.5 509.5 271 525.5 Q 261.8 536.8 257.5 553 L 257 550.5 Q 264 527.5 280.5 514 L 299.5 500 L 305 498 L 304 502.5 L 295 517.5 L 300.5 513 Q 315.4 498.4 340.5 494 Z " /><path fill="rgb(209,213,217)" stroke="rgb(209,213,217)" stroke-width="1" opacity="0.9333333333333333" d="M 407.5 518 Q 427.8 533.7 426 571.5 Q 421.4 594.4 405.5 606 L 391.5 613 L 381 614 Q 383.2 607.3 382 595.5 Q 379.9 586.1 373.5 581 L 363.5 576 L 354.5 576 Q 343.6 578.6 338 586.5 L 334 593.5 L 332 603.5 L 334 613.5 L 338 622.5 L 347.5 633 Q 354.5 639 365.5 641 L 383.5 641 L 393.5 635 L 425.5 607 Q 442.4 595.4 462.5 587 L 493.5 576 L 522.5 569 L 527.5 569 L 546.5 565 L 573.5 564 L 573.5 565 L 557.5 565 L 556.5 566 L 548.5 566 L 547.5 567 L 528.5 569 L 501.5 575 L 470.5 585 Q 445 594.5 424.5 609 L 389.5 640 Q 382.3 644.8 368.5 643 Q 349 639.5 339 626.5 Q 331 617.5 331 600.5 L 336 586.5 L 342.5 580 Q 349 573 364.5 575 Q 373 577.5 378 583.5 Q 384.8 591.2 384 606.5 L 382 613 Q 403.8 611 414 596.5 Q 420.8 587.8 424 575.5 Q 422.7 570.8 425 569.5 L 425 552.5 Q 420.1 530.2 407.5 518 Z " /><path fill="rgb(209,213,217)" stroke="rgb(209,213,217)" stroke-width="1" opacity="0.9333333333333333" d="M 21.5 538 L 22 610.5 L 21 610.5 L 21.5 538 Z " /><path fill="rgb(209,213,217)" stroke="rgb(209,213,217)" stroke-width="1" opacity="0.9333333333333333" d="M 1050.5 541 Q 1060.2 539.8 1063 545.5 L 1067 556.5 L 1066 560.5 L 1063.5 563 L 1060.5 564 Q 1052.2 562.3 1048 556.5 L 1045 547.5 L 1048.5 542 L 1050.5 541 Z " /><path fill="rgb(209,213,217)" stroke="rgb(209,213,217)" stroke-width="1" opacity="0.9333333333333333" d="M 1074.5 543 L 1077 548.5 L 1081 566.5 L 1086.5 574 L 1139 605.5 L 1137.5 605 L 1084 574 L 1078 562.5 Q 1077.5 550.6 1074.5 543 Z " /><path fill="rgb(209,213,217)" stroke="rgb(209,213,217)" stroke-width="1" opacity="0.9333333333333333" d="M 256.5 554 L 257 557.5 L 256 557.5 L 256.5 554 Z " /><path fill="rgb(209,213,217)" stroke="rgb(209,213,217)" stroke-width="1" opacity="0.9333333333333333" d="M 255.5 559 L 256 563.5 L 255 563.5 L 255.5 559 Z " /><path fill="rgb(209,213,217)" stroke="rgb(209,213,217)" stroke-width="1" opacity="0.9333333333333333" d="M 244 562 Q 246.7 560.9 246 563.5 L 252.5 587 L 254 582.5 L 254.5 566 L 255 592.5 L 256 594.5 L 255 594.5 L 249 581.5 L 245.5 564 L 244 565.5 L 241 577.5 L 239.5 600 L 239 583.5 Q 241.8 581.8 240 575.5 L 244 562 Z " /><path fill="rgb(209,213,217)" stroke="rgb(209,213,217)" stroke-width="1" opacity="0.9333333333333333" d="M 592.5 564 L 611.5 564 L 612.5 565 L 632.5 566 L 697.5 578 L 723.5 579 L 736.5 574 L 743.5 573 L 743.5 574 L 736.5 575 L 724.5 580 L 708.5 581 L 645.5 569 L 622.5 567 L 621.5 566 L 611.5 566 L 610.5 565 L 592.5 565 L 592.5 564 Z " /><path fill="rgb(209,213,217)" stroke="rgb(209,213,217)" stroke-width="1" opacity="0.9333333333333333" d="M 1005.5 577 Q 1014.5 575.5 1017 580.5 L 1020 592.5 L 1024.5 598 Q 1031.5 602 1042.5 602 L 1043.5 601 L 1056.5 601 L 1076.5 610 Q 1083.6 612.4 1094.5 611 Q 1100.3 607.8 1110.5 609 L 1118 612 L 1119 623.5 L 1126 633.5 L 1126 635.5 L 1121.5 641 L 1108.5 649 L 1099.5 651 L 1090.5 651 L 1080.5 649 L 1056.5 640 L 1049.5 639 L 1044 642.5 L 1043 644.5 L 1046.5 649 L 1059.5 651 L 1081.5 657 L 1105.5 658 L 1117.5 654 L 1129.5 644 L 1115.5 659 Q 1109.5 665 1100.5 668 Q 1093.4 670.4 1082.5 669 L 1065.5 666 L 1038.5 666 Q 1019 671.5 1008 685.5 L 977 735.5 L 941 771.5 L 915 805.5 L 900.5 820 Q 882.6 835.1 858.5 844 L 833.5 851 L 798.5 857 Q 790 858.5 786 864.5 L 778 879.5 L 773 892.5 L 762 929.5 L 753.5 952 L 753 950.5 L 759 935.5 L 761 925.5 L 772 891.5 L 780 871.5 Q 791 852.5 807.5 839 L 820 827.5 L 826 819.5 L 839 791.5 L 846 782 L 860.5 774 L 877.5 774 L 883.5 776 L 895.5 777 Q 902.7 775.2 906 769.5 L 910 759.5 L 911 745.5 L 910 744.5 L 909 731.5 L 901 699.5 L 903.5 696 Q 910.9 695.1 913.5 699 L 926 711.5 L 935.5 722 Q 940 726.5 949.5 726 Q 959.6 723.6 965 716.5 L 976 694.5 L 978 683.5 L 978 667.5 L 974 648.5 L 966 628.5 L 965 611.5 Q 968 597.5 977.5 590 Q 989.2 581.2 1005.5 577 Z " /><path fill="rgb(209,213,217)" stroke="rgb(209,213,217)" stroke-width="1" opacity="0.9333333333333333" d="M 240.5 601 Q 241.5 615 246 625.5 Q 253.9 643.6 267.5 656 L 271 658.5 L 268.5 659 L 250.5 651 L 251 652.5 Q 256.7 664.3 266.5 672 Q 285.3 687.3 313 693.5 L 307.5 696 L 294 698.5 Q 306.4 704.6 323 706.5 L 317.5 707 L 296.5 701 L 293 698.5 Q 292.2 695.9 295.5 697 Q 297 694.5 302.5 696 L 307 693.5 L 287.5 686 L 274.5 679 Q 263.5 672.5 256 662.5 L 248 651.5 L 248 649 L 265.5 656 L 258 647.5 Q 248.6 635.9 243 620.5 L 240 608.5 L 240.5 601 Z " /><path fill="rgb(209,213,217)" stroke="rgb(209,213,217)" stroke-width="1" opacity="0.9333333333333333" d="M 1140.5 606 L 1147 610 Q 1149 613 1148 620.5 Q 1144.4 631.4 1136.5 638 L 1139 634.5 L 1147 620.5 L 1147 612.5 L 1140.5 606 Z " /><path fill="rgb(209,213,217)" stroke="rgb(209,213,217)" stroke-width="1" opacity="0.9333333333333333" d="M 21.5 659 L 22 674.5 L 21 674.5 L 21.5 659 Z " /><path fill="rgb(209,213,217)" stroke="rgb(209,213,217)" stroke-width="1" opacity="0.9333333333333333" d="M 324.5 707 L 353.5 708 Q 360.1 708.9 363 713.5 L 366 721.5 L 366 754.5 L 365 754.5 L 364 718.5 L 358.5 711 L 349.5 709 L 324.5 708 L 324.5 707 Z " /><path fill="rgb(209,213,217)" stroke="rgb(209,213,217)" stroke-width="1" opacity="0.9333333333333333" d="M 535.5 709 L 544.5 715 Q 560.8 719.7 573.5 728 L 597 749.5 L 612.5 769 Q 626.8 782.7 646.5 791 L 670.5 798 L 687.5 800 L 688.5 801 L 697 801 L 702.5 793 L 739.5 763 L 738 765.5 L 725 784.5 L 706 804.5 L 703.5 812 L 703 808.5 L 709 799.5 L 734 770.5 L 732.5 770 Q 713 784 697 801.5 L 694 807.5 L 692.5 842 L 678.5 838 L 652.5 826 L 599 795 Q 594.7 769.9 584 750.5 L 566.5 731 L 551.5 721 L 556 726.5 Q 576.4 748.1 586 780.5 L 591 807.5 L 591 843.5 L 585 876.5 L 569 929.5 L 569 955.5 L 576 975.5 Q 585.5 990 598.5 1001 L 621.5 1018 L 636.5 1025 L 655.5 1030 L 666 1037.5 L 672 1047.5 L 673 1053.5 L 672 1053.5 Q 670.6 1043.4 663.5 1039 Q 661.2 1036.3 655.5 1037 L 659 1041.5 Q 663 1046.5 663 1055.5 L 660.5 1058 L 653 1059 Q 651.9 1048.9 644.5 1044 Q 641.1 1040.3 635 1041 L 640 1049.5 L 641 1055.5 L 638.5 1059 Q 611.9 1060.1 600 1046.5 L 568 1005.5 Q 557.3 992.7 550 976.5 L 545 958.5 L 545 935.5 L 550 915.5 L 561 882.5 L 566 861.5 L 568 843.5 L 569 842.5 L 569 833.5 L 570 832.5 L 570 799.5 L 569 798.5 L 569 790.5 L 567 779.5 L 560 756.5 L 546 726.5 L 535.5 709 Z " /><path fill="rgb(209,213,217)" stroke="rgb(209,213,217)" stroke-width="1" opacity="0.9333333333333333" d="M 21.5 745 L 22 861.5 L 21 861.5 L 21.5 745 Z " /><path fill="rgb(209,213,217)" stroke="rgb(209,213,217)" stroke-width="1" opacity="0.9333333333333333" d="M 366.5 756 Q 372.7 801.8 398.5 828 L 399 820.5 L 398 819.5 L 398 809.5 L 400 810.5 Q 410.2 834.8 429.5 850 Q 440.9 860.1 456 866.5 L 453.5 867 Q 433.6 856.9 419 841.5 Q 408.2 829.8 400.5 815 L 400 825.5 L 401 830 Q 397.2 830.8 396 827.5 Q 383.1 812.9 375 793.5 L 367 768.5 L 366.5 756 Z " /><path fill="rgb(209,213,217)" stroke="rgb(209,213,217)" stroke-width="1" opacity="0.9333333333333333" d="M 601 808 L 635 826 L 632 847.5 L 612 895.5 L 611 911.5 L 619.5 924 L 633 934.5 L 630.5 938 Q 620.5 943 614 951.5 Q 607.5 959.5 605 970 Q 591.2 966.1 580 958.5 Q 576.4 950.6 578 937.5 L 598 858.5 L 600 838.5 L 601 837.5 L 601 808 Z " /><path fill="rgb(209,213,217)" stroke="rgb(209,213,217)" stroke-width="1" opacity="0.9333333333333333" d="M 703.5 828 L 704 846.5 L 721 913.5 L 724 928.5 L 724 943.5 Q 721.9 952.4 715.5 957 L 704.5 962 L 681.5 964 L 647.5 974 L 634.5 975 L 625 971 Q 623.3 968.6 624 962.5 L 628 953 L 619 960.5 L 615.5 969 L 615 966.5 Q 619.6 955.1 629.5 949 L 644.5 940 L 651.5 938 L 660.5 938 Q 664.1 940.9 671.5 940 L 680.5 937 L 699.5 936 L 704 932.5 L 704 906.5 L 703 905.5 L 703.5 828 Z M 651 942 L 643 945 L 635 955 L 636 959 L 643 963 Q 651 963 656 958 Q 661 954 663 947 Q 660 941 651 942 Z " /><path fill="rgb(209,213,217)" stroke="rgb(209,213,217)" stroke-width="1" opacity="0.9333333333333333" d="M 868.5 849 L 872 850.5 L 902 903.5 L 905 913.5 L 905 928.5 Q 901.3 945.8 889.5 955 L 854.5 985 L 837.5 997 L 821.5 1004 L 804.5 1004 Q 798.8 1002.8 796 998.5 L 795 996.5 L 795 983.5 L 803 962.5 L 812.5 953 L 828.5 946 L 853 926.5 L 853 921.5 L 847.5 916 Q 820.2 897.3 797 874.5 L 794 870.5 L 794 868 L 843.5 858 L 860.5 853 L 868.5 849 Z M 870 850 L 849 858 L 835 862 Q 858 886 888 903 Q 901 912 903 933 L 904 928 L 904 915 L 900 902 L 874 856 L 870 850 Z M 824 953 L 817 957 L 810 965 Q 809 971 811 973 L 814 974 L 821 974 L 828 970 L 834 961 L 833 954 Q 830 952 824 953 Z M 806 980 Q 802 981 803 989 L 809 992 Q 819 993 824 987 Q 826 988 825 986 L 828 982 L 826 983 L 816 983 L 810 980 L 806 980 Z " /><path fill="rgb(209,213,217)" stroke="rgb(209,213,217)" stroke-width="1" opacity="0.9333333333333333" d="M 457.5 864 Q 479.9 873.6 494 891.5 Q 502.2 901.2 506 915.5 L 507 926.5 L 508 927.5 L 508 948.5 L 507 949.5 L 506.5 959 L 506 924.5 L 502 907.5 Q 492.9 889.1 477.5 877 L 458.5 866 L 457 866.5 L 457.5 864 Z " /><path fill="rgb(209,213,217)" stroke="rgb(209,213,217)" stroke-width="1" opacity="0.9333333333333333" d="M 21.5 880 L 22 938.5 L 21 938.5 L 21.5 880 Z " /><path fill="rgb(209,213,217)" stroke="rgb(209,213,217)" stroke-width="1" opacity="0.9333333333333333" d="M 752.5 953 L 753 954.5 L 751 955.5 L 752.5 953 Z " /><path fill="rgb(209,213,217)" stroke="rgb(209,213,217)" stroke-width="1" opacity="0.9333333333333333" d="M 750.5 957 L 750 958.5 L 740.5 971 Q 731.3 979.3 714.5 980 L 714.5 979 Q 737 977 747 962.5 L 750.5 957 Z " /><path fill="rgb(209,213,217)" stroke="rgb(209,213,217)" stroke-width="1" opacity="0.9333333333333333" d="M 505.5 963 Q 504.8 973.2 508 979.5 L 524.5 997 L 600.5 1063 L 616.5 1068 L 656 1068.5 L 615.5 1069 L 603.5 1066 L 588.5 1055 L 528.5 1002 L 508 981.5 Q 503 975.1 505.5 963 Z " /><path fill="rgb(209,213,217)" stroke="rgb(209,213,217)" stroke-width="1" opacity="0.9333333333333333" d="M 614.5 970 Q 614 981.5 621.5 985 L 628.5 987 L 649 987.5 L 628.5 988 L 621.5 986 L 617 982.5 Q 612.5 978.3 614.5 970 Z " /><path fill="rgb(209,213,217)" stroke="rgb(209,213,217)" stroke-width="1" opacity="0.9333333333333333" d="M 696.5 980 L 713 980.5 L 688.5 982 L 687.5 983 L 671.5 984 L 657.5 987 L 650.5 987 L 650.5 986 L 656.5 986 L 683.5 981 L 695.5 981 L 696.5 980 Z " /><path fill="rgb(209,213,217)" stroke="rgb(209,213,217)" stroke-width="1" opacity="0.9333333333333333" d="M 21.5 1001 L 22 1017.5 L 21 1017.5 L 21.5 1001 Z " /><path fill="rgb(209,213,217)" stroke="rgb(209,213,217)" stroke-width="1" opacity="0.9333333333333333" d="M 672.5 1057 L 673 1059.5 L 667.5 1066 Q 664.2 1068.7 657.5 1068 L 657.5 1067 Q 667.5 1067.5 671 1061.5 L 672.5 1057 Z " /><path fill="rgb(209,213,217)" stroke="rgb(209,213,217)" stroke-width="1" opacity="0.9333333333333333" d="M 21.5 1343 L 22 1359.5 L 21 1359.5 L 21.5 1343 Z " /><path fill="rgb(25,35,41)" stroke="rgb(25,35,41)" stroke-width="1" opacity="0.996078431372549" d="M 988.5 435 Q 996.5 433.5 998 438.5 Q 1000.2 443.3 999 451.5 L 1000 452.5 L 1000 473.5 L 1001 479 L 1002.5 479 L 1032.5 450 L 1042.5 444 L 1047 444 Q 1049.6 446.3 1049 452.5 L 1037 500.5 L 1059 519.5 Q 1068.2 529.3 1074 542.5 Q 1077.7 550.8 1078 562.5 L 1084 574 L 1139.5 606 L 1147 612.5 L 1147 620.5 L 1143 628.5 Q 1136.1 640.1 1125.5 648 Q 1119.5 654 1110.5 657 L 1105.5 658 L 1089.5 658 L 1072.5 655 L 1059.5 651 L 1049.5 650 L 1044 646.5 L 1043 644.5 L 1046.5 640 L 1052.5 639 L 1080.5 649 L 1090.5 651 L 1099.5 651 Q 1115.3 648.3 1124 638.5 L 1126 633.5 Q 1117 627.2 1118 612 Q 1112.6 607.6 1100.5 609 Q 1093.3 612.8 1080.5 611 L 1056.5 601 L 1043.5 601 L 1038.5 602 L 1028.5 600 L 1021 594.5 L 1018 582.5 L 1014.5 578 L 1005.5 577 Q 985.3 581.8 973 594.5 Q 963.6 603.6 965 623.5 L 976 656.5 L 978 667.5 L 978 683.5 L 974 700.5 Q 969.6 713.1 960.5 721 Q 955.3 726.3 944.5 726 Q 932.2 722.3 926 712.5 L 913.5 699 Q 910.9 695.1 903.5 696 Q 900.4 697.4 901 702.5 L 909 731.5 L 911 753.5 L 909 763.5 Q 906.4 770.9 900.5 775 Q 896.9 777.9 889.5 777 L 877.5 774 L 860.5 774 L 846 782 L 839 791.5 L 826 819.5 L 808.5 839 L 791 855.5 L 780 871.5 L 775 883.5 L 753 952.5 Q 747.8 963.8 738.5 971 L 729.5 976 L 713.5 980 L 683.5 981 L 649.5 987 L 628.5 987 L 621.5 985 L 616 979.5 L 615 969.5 Q 618.1 958.6 626.5 953 Q 629.1 952.2 628 955.5 Q 622.9 958.9 624 968.5 L 625 971 Q 630 975.6 641.5 975 L 676.5 965 L 688.5 964 L 689.5 963 L 699.5 963 L 708.5 961 L 720 952.5 Q 726.3 944.8 724 928.5 L 713 883.5 L 713 879.5 L 704 846.5 L 703 812.5 L 706 804.5 Q 725.3 787.3 739 764.5 L 737.5 764 L 701 794.5 L 697 801 L 688.5 801 L 687.5 800 L 670.5 798 L 646.5 791 Q 625.8 782.2 611 767.5 Q 598.2 748.8 581.5 734 L 568.5 725 Q 559.9 719.6 548.5 717 L 536 710 L 556 746.5 L 566 775.5 L 569 790.5 L 569 798.5 L 570 799.5 L 570 832.5 L 569 833.5 L 569 842.5 L 568 843.5 L 565 866.5 L 545 935.5 L 545 958.5 Q 547.8 974.7 555 986.5 Q 577.3 1020.2 603.5 1050 Q 615.6 1059.9 638.5 1059 L 641 1053.5 L 635 1041 Q 645 1041 649 1048.5 L 653 1059 L 660.5 1058 L 663 1055.5 Q 662.9 1042.6 655 1037.5 L 659.5 1037 L 669 1044.5 Q 672.5 1049 673 1056.5 L 668.5 1064 L 665.5 1066 L 656.5 1068 L 616.5 1068 L 604.5 1065 L 597.5 1061 L 524.5 997 L 510 982.5 Q 503.8 975.2 506 959.5 L 508 948.5 L 508 927.5 L 507 926.5 L 506 915.5 L 499 898.5 L 480.5 878 Q 470.6 869.4 457.5 864 L 456.5 867 Q 431.5 855.5 415 835.5 Q 405.3 823.7 398.5 809 L 398 819.5 L 400 828.5 L 395 824.5 Q 379.1 805.9 371 779.5 L 366 755.5 L 366 721.5 Q 364.8 713.7 359.5 710 L 353.5 708 L 333.5 708 L 332.5 707 L 317.5 706 L 294 698.5 L 307.5 696 L 313 693.5 L 294.5 688 L 281.5 682 Q 268.3 675.3 259 664.5 L 249 650.5 L 250.5 651 Q 259.1 656.4 270.5 659 L 268.5 656 L 262 650.5 Q 249.1 636.9 243 616.5 L 240 600.5 L 240 583.5 L 242 572.5 L 245.5 564 L 249 581.5 L 254.5 593 L 255 564.5 L 259 547.5 Q 267.8 523.8 286.5 510 L 303.5 499 L 304 500.5 Q 295.7 508.7 292 521.5 L 294 522 L 299.5 515 Q 312.3 502.8 331.5 497 L 340.5 495 L 362.5 495 Q 396.4 501.1 413 524.5 Q 426.4 539.6 425 569.5 L 421 584.5 L 417 592.5 L 405.5 605 Q 396.7 612.5 382 613 Q 384.9 608.1 384 598.5 L 380 586.5 L 374.5 580 Q 368 573 352.5 575 Q 341.9 578.4 336 586.5 Q 330.9 593.4 331 605.5 L 333 615.5 L 337 623.5 L 346.5 634 L 363.5 642 L 381.5 643 L 393.5 637 Q 410.7 617.2 433.5 603 L 470.5 585 L 501.5 575 L 528.5 569 L 547.5 567 L 548.5 566 L 556.5 566 L 557.5 565 L 591.5 564 L 592.5 565 L 610.5 565 L 611.5 566 L 638.5 568 L 701.5 580 L 719.5 581 L 744.5 573 L 767.5 573 L 802.5 583 L 810.5 583 L 820 579 Q 823.3 568.5 831.5 562 L 861.5 543 L 907.5 505 L 936.5 491 L 940 487.5 Q 956.6 463.1 977.5 443 L 988.5 435 Z M 986 455 Q 974 467 967 485 L 962 499 L 961 510 L 960 511 L 962 521 L 966 525 L 970 525 L 976 522 Q 987 514 991 500 L 991 477 L 990 476 L 990 459 L 989 457 L 986 455 Z M 1051 541 L 1049 542 L 1045 548 L 1048 557 Q 1052 562 1061 564 L 1064 563 L 1066 561 L 1067 557 L 1063 546 Q 1060 540 1051 541 Z " /><path fill="rgb(25,35,41)" stroke="rgb(25,35,41)" stroke-width="1" opacity="0.996078431372549" d="M 869.5 850 L 874 855.5 L 900 901.5 L 904 914.5 L 904 927.5 L 902.5 933 Q 901.2 911.8 887.5 903 Q 857.5 886 835 861.5 L 848.5 858 L 869.5 850 Z " /><path fill="rgb(25,35,41)" stroke="rgb(25,35,41)" stroke-width="1" opacity="0.996078431372549" d="M 650.5 942 Q 660.1 940.9 663 946.5 Q 660.9 953.9 655.5 958 Q 651.5 963 642.5 963 L 636 958.5 L 635 954.5 L 642.5 945 L 650.5 942 Z " /><path fill="rgb(25,35,41)" stroke="rgb(25,35,41)" stroke-width="1" opacity="0.996078431372549" d="M 823.5 953 Q 830.3 952.1 833 954 L 834 960.5 L 827.5 970 L 820.5 974 L 813.5 974 L 811 973 Q 809.3 970.6 810 964.5 L 816.5 957 L 823.5 953 Z " /><path fill="rgb(25,35,41)" stroke="rgb(25,35,41)" stroke-width="1" opacity="0.996078431372549" d="M 805.5 980 L 809.5 980 L 815.5 983 L 825.5 983 L 827.5 982 L 825 985.5 Q 825.8 987.8 823.5 987 Q 819 992.5 808.5 992 L 803 988.5 Q 801.5 981.5 805.5 980 Z " /></svg>